<svg width="333.05px" height="122px" xmlns="http://www.w3.org/2000/svg" viewBox="83.475 14 333.05 122" style="background: none;" preserveAspectRatio="xMidYMid"><defs><filter id="editing-lego" x="-100%" y="-100%" width="300%" height="300%"><feFlood flood-color="#f8de3c" result="f1"></feFlood><feFlood flood-color="#fefefe" result="f2"></feFlood><feMorphology operator="dilate" radius="3" in="SourceAlpha"></feMorphology><feConvolveMatrix order="5,5" divisor="1" result="cm1" kernelMatrix="0 1 1 1 0  1 0 0 0 1  1 0 0 0 1  1 0 0 0 1  0 1 1 1 0"></feConvolveMatrix><feComposite operator="in" in="f1" in2="cm1" result="c1"></feComposite><feMorphology operator="dilate" radius="3"></feMorphology><feConvolveMatrix order="5,5" divisor="1" result="cm2" kernelMatrix="0 1 1 1 0  1 0 0 0 1  1 0 0 0 1  1 0 0 0 1  0 1 1 1 0"></feConvolveMatrix><feComposite operator="in" in="f2" in2="cm2" result="c2"></feComposite><feMerge><feMergeNode in="c2"></feMergeNode><feMergeNode in="c1"></feMergeNode><feMergeNode in="SourceGraphic"></feMergeNode></feMerge></filter></defs><g filter="url(#editing-lego)"><g transform="translate(136.2138034105301, 103.15999984741211)"><path d="M0.13-8.90L0.13-8.90L0.13-8.90Q0.13-16.26 9.73-20.93L9.73-20.93L9.73-20.93Q5.50-24.38 5.50-28.86L5.50-28.86L5.50-28.86Q5.50-35.01 10.62-39.30L10.62-39.30L10.62-39.30Q15.68-43.52 23.23-43.52L23.23-43.52L23.23-43.52Q28.35-43.52 31.49-41.09L31.49-41.09L31.49-41.09Q34.62-38.66 34.62-35.01L34.62-35.01L34.62-35.01Q34.62-29.44 28.99-25.60L28.99-25.60L28.99-25.60Q27.39-24.51 25.66-23.74L25.66-23.74L25.66-23.74Q29.82-20.29 30.85-18.82L30.85-18.82L30.85-18.82Q32.58-16.45 32.58-13.57L32.58-13.57L32.58-13.57Q32.58-10.69 31.14-7.87L31.14-7.87L31.14-7.87Q29.70-5.06 27.14-3.07L27.14-3.07L27.14-3.07Q21.76 1.28 13.89 1.28L13.89 1.28L13.89 1.28Q7.62 1.28 3.84-1.54L3.84-1.54L3.84-1.54Q0.13-4.35 0.13-8.90ZM18.05-13.63L13.57-17.41L13.57-17.41Q10.30-14.91 10.30-10.69L10.30-10.69L10.30-10.69Q10.30-8.45 11.36-6.91L11.36-6.91L11.36-6.91Q12.42-5.38 14.40-5.38L14.40-5.38L14.40-5.38Q16.38-5.38 17.89-6.85L17.89-6.85L17.89-6.85Q19.39-8.32 19.39-10.56L19.39-10.56L19.39-10.56Q19.39-12.54 18.05-13.63L18.05-13.63ZM17.92-29.70L21.70-26.88L21.70-26.88Q25.22-28.54 25.22-32.45L25.22-32.45L25.22-32.45Q25.22-34.50 24.13-35.84L24.13-35.84L24.13-35.84Q23.04-37.18 21.06-37.18L21.06-37.18L21.06-37.18Q19.07-37.18 17.76-36.03L17.76-36.03L17.76-36.03Q16.45-34.88 16.45-33.41L16.45-33.41L16.45-33.41Q16.45-30.91 17.92-29.70L17.92-29.70ZM63.23-20.61L76.16-21.76L76.16-21.76Q71.55-11.65 71.55 0.06L71.55 0.06L71.55 0.06Q69.82 1.28 67.30 1.28L67.30 1.28L67.30 1.28Q64.77 1.28 63.17 0.10L63.17 0.10L63.17 0.10Q61.57-1.09 61.25-2.30L61.25-2.30L61.25-2.30Q59.65-0.64 57.06 0.32L57.06 0.32L57.06 0.32Q54.46 1.28 51.71 1.28L51.71 1.28L51.71 1.28Q48.96 1.28 46.56 0.38L46.56 0.38L46.56 0.38Q44.16-0.51 42.30-2.50L42.30-2.50L42.30-2.50Q38.21-6.85 38.21-15.10L38.21-15.10L38.21-15.10Q38.21-27.90 45.06-35.58L45.06-35.58L45.06-35.58Q52.10-43.52 64.58-43.52L64.58-43.52L64.58-43.52Q73.22-43.52 76.29-39.04L76.29-39.04L76.29-39.04Q77.25-37.63 77.25-35.94L77.25-35.94L77.25-35.94Q77.25-34.24 76.51-32.80L76.51-32.80L76.51-32.80Q75.78-31.36 74.62-30.21L74.62-30.21L74.62-30.21Q71.87-27.65 68.48-27.65L68.48-27.65L68.48-27.65Q67.14-27.65 65.86-28.10L65.86-28.10L65.86-28.10Q66.11-30.02 66.11-32.26L66.11-32.26L66.11-32.26Q66.11-34.50 65.95-35.52L65.95-35.52L65.95-35.52Q65.79-36.54 65.41-37.38L65.41-37.38L65.41-37.38Q64.58-39.10 62.75-39.10L62.75-39.10L62.75-39.10Q60.93-39.10 58.91-37.15L58.91-37.15L58.91-37.15Q56.90-35.20 55.30-32L55.30-32L55.30-32Q51.78-24.83 51.78-16.19L51.78-16.19L51.78-16.19Q51.78-12.22 53.31-9.41L53.31-9.41L53.31-9.41Q54.98-6.34 57.92-6.34L57.92-6.34L57.92-6.34Q58.94-6.34 59.87-6.85L59.87-6.85L59.87-6.85Q60.80-7.36 61.18-7.74L61.18-7.74L63.23-20.61ZM99.33-17.98L99.33-17.98L99.33-17.98Q101.63-22.08 101.63-26.24L101.63-26.24L101.63-26.24Q101.63-28.99 99.65-28.99L99.65-28.99L99.65-28.99Q98.11-28.99 96.51-26.37L96.51-26.37L96.51-26.37Q94.85-23.74 94.34-20.35L94.34-20.35L91.01 0L77.76 1.28L84.29-32.64L94.85-33.92L93.70-27.46L93.70-27.46Q96.83-33.92 103.87-33.92L103.87-33.92L103.87-33.92Q107.58-33.92 109.60-32L109.60-32L109.60-32Q111.62-30.08 111.62-26.14L111.62-26.14L111.62-26.14Q111.62-22.21 109.02-19.71L109.02-19.71L109.02-19.71Q106.43-17.22 102.02-17.22L102.02-17.22L102.02-17.22Q100.10-17.22 99.33-17.98ZM126.59 1.28L126.59 1.28L126.59 1.28Q112.51 1.28 112.51-11.97L112.51-11.97L112.51-11.97Q112.51-21.38 117.70-27.46L117.70-27.46L117.70-27.46Q123.20-33.92 132.74-33.92L132.74-33.92L132.74-33.92Q139.65-33.92 143.17-30.72L143.17-30.72L143.17-30.72Q146.69-27.52 146.69-20.80L146.69-20.80L146.69-20.80Q146.69-10.56 141.18-4.61L141.18-4.61L141.18-4.61Q135.81 1.28 126.59 1.28ZM128.26-26.56L128.26-26.56L128.26-26.56Q127.49-24.83 126.88-22.24L126.88-22.24L126.88-22.24Q126.27-19.65 125.50-15.55L125.50-15.55L125.50-15.55Q124.74-11.46 124.74-6.40L124.74-6.40L124.74-6.40Q124.74-4.74 125.28-3.65L125.28-3.65L125.28-3.65Q125.82-2.56 127.30-2.56L127.30-2.56L127.30-2.56Q128.77-2.56 129.70-3.26L129.70-3.26L129.70-3.26Q130.62-3.97 131.33-5.63L131.33-5.63L131.33-5.63Q132.61-8.58 133.63-14.05L133.63-14.05L133.63-14.05Q134.66-19.52 134.75-21.89L134.75-21.89L134.75-21.89Q134.85-24.26 134.85-26.02L134.85-26.02L134.85-26.02Q134.85-27.78 134.34-28.93L134.34-28.93L134.34-28.93Q133.82-30.08 132.38-30.08L132.38-30.08L132.38-30.08Q130.94-30.08 129.98-29.18L129.98-29.18L129.98-29.18Q129.02-28.29 128.26-26.56ZM171.01-2.69L171.01-2.69L171.01-2.69Q167.94 1.28 160.32 1.28L160.32 1.28L160.32 1.28Q156.35 1.28 153.47-1.12L153.47-1.12L153.47-1.12Q150.59-3.52 150.59-6.98L150.59-6.98L150.59-6.98Q150.59-8.90 150.78-9.86L150.78-9.86L155.07-32.64L168.06-33.92L163.39-9.22L163.39-9.22Q163.14-7.81 163.14-6.98L163.14-6.98L163.14-6.98Q163.14-3.26 165.38-3.26L165.38-3.26L165.38-3.26Q167.87-3.26 169.66-6.66L169.66-6.66L169.66-6.66Q170.24-7.74 170.50-9.15L170.50-9.15L175.04-32.64L187.65-33.92L182.91-8.96L182.91-8.96Q182.72-8 182.72-6.98L182.72-6.98L182.72-6.98Q182.72-5.95 183.30-4.83L183.30-4.83L183.30-4.83Q183.87-3.71 185.73-3.46L185.73-3.46L185.73-3.46Q185.34-1.92 184.00-0.90L184.00-0.90L184.00-0.90Q181.18 1.28 178.14 1.28L178.14 1.28L178.14 1.28Q175.10 1.28 173.31 0.19L173.31 0.19L173.31 0.19Q171.52-0.90 171.01-2.69ZM220.93-4.38L220.93-4.38L220.93-4.38Q218.24-1.66 214.56-0.19L214.56-0.19L214.56-0.19Q210.88 1.28 207.23 1.28L207.23 1.28L207.23 1.28Q203.58 1.28 202.30 0.64L202.30 0.64L200.32 11.52L187.33 12.80L196.16-32.64L206.59-33.73L205.76-29.31L205.76-29.31Q208.45-33.86 214.02-33.86L214.02-33.86L214.02-33.86Q220.29-33.86 223.62-29.82L223.62-29.82L223.62-29.82Q226.56-26.18 226.56-20.61L226.56-20.61L226.56-20.61Q226.56-15.04 225.09-11.07L225.09-11.07L225.09-11.07Q223.62-7.10 220.93-4.38ZM206.46-22.34L203.07-3.58L203.07-3.58Q204.42-2.43 206.08-2.43L206.08-2.43L206.08-2.43Q207.74-2.43 208.70-3.07L208.70-3.07L208.70-3.07Q209.66-3.71 210.37-4.99L210.37-4.99L210.37-4.99Q212.29-8.45 213.82-18.94L213.82-18.94L213.82-18.94Q214.27-22.02 214.27-25.02L214.27-25.02L214.27-25.02Q214.27-28.03 213.60-28.99L213.60-28.99L213.60-28.99Q212.93-29.95 211.65-29.95L211.65-29.95L211.65-29.95Q207.74-29.95 206.46-22.34L206.46-22.34Z" fill="#000000"></path></g></g><style>text {
  font-size: 64px;
  font-family: Arial Black;
  dominant-baseline: central;
  text-anchor: middle;
}</style></svg>